# xmcd
#
# Track frame offsets:
#	150
#	27146
#	49030
#	69377
#	91965
#	117768
#	133081
#	162253
#	181821
#	201322
#	223391
#	257704
#
# Disc length: 3854 seconds
#
# Revision: 1
# Processed by: cddbd v1.5.2PL0 Copyright (c) Steve Scherf et al.
# Submitted via: EZCDAudioConverter 3.1.5.1
#
DISCID=ab0f0c0c
DTITLE=The Jacksons - Triumph - 2008 Remaster
DYEAR=2008
DGENRE=R&B
TTITLE0=Can You Feel It
TTITLE1=Lovely One
TTITLE2=Your Ways
TTITLE3=Everybody
TTITLE4=This Place Hotel (Heartbreak Hotel)
TTITLE5=Time Waits for No One
TTITLE6=Walk Right Now
TTITLE7=Give It Up
TTITLE8=Wondering Who
TTITLE9=This Place Hotel (single version)
TTITLE10=Walk Right Now (John Luongo disco mix)
TTITLE11=Walk Right Now (John Luongo instrumental mix)
EXTD=
EXTT0=
EXTT1=
EXTT2=
EXTT3=
EXTT4=
EXTT5=
EXTT6=
EXTT7=
EXTT8=
EXTT9=
EXTT10=
EXTT11=
PLAYORDER=
